# xmcd
#
# Track frame offsets:
#	150
#	17475
#	33432
#	49762
#	63925
#	79955
#	96262
#	113852
#	128465
#	149965
#	169312
#	186640
#	202597
#	218930
#	233092
#	249122
#	265430
#	283022
#	297635
#	319135
#
# Disc length: 4513 seconds
#
# Revision: 1
# Processed by: cddbd v1.5.1PL0 Copyright (c) Steve Scherf et al.
# Submitted via: audiograbber 1.82.02
#
DISCID=32119f14
DTITLE=Various Artist - Top Hits Monthly 0212 Country
DYEAR=1900
DGENRE=Karaoke
TTITLE0=Faith Hill W - Vocals - Cry W - Vocals
TTITLE1=Terri Clark W - Vocals - I just wanna be mad W - Vocals
TTITLE2=Brooks and Dunn W - Vocals - Every River W - Vocals
TTITLE3=Trick Pony W - Vocals - On a mission W - Vocals
TTITLE4=Steve Holly W - Vocals - I'm not breakin' W - Vocals
TTITLE5=Aaron Lines W - Vocals - You can't hide beautiful W - Vocals
TTITLE6=Dixie Chicks W - Vocals - Landslide W - Vocals
TTITLE7=George Strait W - Vocals - She'll leave you with a smile W - Vocals
TTITLE8=Kenny Chesney W - Vocals - A lot of things different W - Vocals
TTITLE9=John Michael Montgomery W - Vocals - 'til nothing comes between us W - 
TTITLE9=Vocals
TTITLE10=Faith Hill - Cry
TTITLE11=Terri Clark - I just wanna be mad
TTITLE12=Brooks and Dunn - Every River
TTITLE13=Trick Pony - Every River
TTITLE14=Steve Holly - I'm not breakin'
TTITLE15=Aaron Lines - You can't hide beautiful
TTITLE16=Dixie Chicks - Landslide
TTITLE17=George Strait - She'll leave you with a smile
TTITLE18=Kenny Chesney - A lot of things different
TTITLE19=John Michael Montgomery  - 'Til nothing comes between us
EXTD=
EXTT0=
EXTT1=
EXTT2=
EXTT3=
EXTT4=
EXTT5=
EXTT6=
EXTT7=
EXTT8=
EXTT9=
EXTT10=
EXTT11=
EXTT12=
EXTT13=
EXTT14=
EXTT15=
EXTT16=
EXTT17=
EXTT18=
EXTT19=
PLAYORDER=
